<?xml version="1.0" encoding="utf-8"?>
<!-- Generator: Adobe Illustrator 27.5.0, SVG Export Plug-In . SVG Version: 6.00 Build 0)  -->
<svg version="1.1" id="Layer_1" xmlns="http://www.w3.org/2000/svg" xmlns:xlink="http://www.w3.org/1999/xlink" x="0px" y="0px"
	 viewBox="0 0 1920 1080" style="enable-background:new 0 0 1920 1080;" xml:space="preserve">
<style type="text/css">
	.st0{fill:#F8F8F8;}
	.st1{clip-path:url(#SVGID_00000100345529349085685790000010603113599107292844_);}
	.st2{fill:#F2F2F2;}
</style>
<rect class="st0" width="1920" height="1080"/>
<g>
	<defs>
		<rect id="SVGID_1_" width="1920" height="1080"/>
	</defs>
	<clipPath id="SVGID_00000158736609322012071600000006445852447359195018_">
		<use xlink:href="#SVGID_1_"  style="overflow:visible;"/>
	</clipPath>
	<g style="clip-path:url(#SVGID_00000158736609322012071600000006445852447359195018_);">
		<polygon class="st2" points="-162,147.8 43.2,147.8 43.2,138.8 43.2,96.4 34,87.1 34,138.8 -171.2,138.8 -171.2,147.8 
			-171.2,190.2 -162,199.5 		"/>
		<polygon class="st2" points="-196.3,310.5 -187.1,319.8 -187.1,268.1 18.1,268.1 18.1,259.1 18,259.1 18,216.6 8.8,207.2 8.8,259 
			-196.4,259 -196.4,268 -196.3,268 		"/>
		<polygon class="st2" points="-56.9,190.8 -56.9,233.2 -47.7,242.5 -47.7,190.8 157.5,190.8 157.5,181.8 157.5,139.4 148.2,130.1 
			148.2,181.8 -56.9,181.8 		"/>
		<polygon class="st2" points="91.7,113.7 296.9,113.7 296.9,113.5 296.9,104.7 296.9,62.2 287.7,52.8 287.7,104.5 82.5,104.5 
			82.5,104.7 82.5,113.5 82.5,156.1 91.7,165.4 		"/>
		<polygon class="st2" points="206,208.5 206,156.8 411.2,156.8 411.2,147.8 411.1,147.8 411.1,105.2 401.9,95.9 401.9,147.6 
			196.7,147.6 196.7,156.6 196.8,156.6 196.8,199.2 		"/>
		<polygon class="st2" points="2.7,-49.7 207.8,-49.7 207.8,-58.7 -6.6,-58.7 -6.6,-7.3 2.7,2 		"/>
		<polygon class="st2" points="107.7,35.7 116.9,45 116.9,-6.7 322.1,-6.7 322.1,-15.7 107.7,-15.7 		"/>
		<polygon class="st2" points="-136.8,27.6 68.4,27.6 68.4,27.4 68.4,18.6 68.4,-24 59.2,-33.3 59.2,18.4 -146,18.4 -146,18.6 
			-146,27.4 -146,70 -136.8,79.3 		"/>
		<polygon class="st2" points="-22.5,122.3 -22.5,70.6 182.7,70.6 182.7,61.6 182.6,61.6 182.6,19.1 173.4,9.7 173.4,61.5 
			-31.8,61.5 -31.8,70.5 -31.7,70.5 -31.7,113 		"/>
		<polygon class="st2" points="-107,422.6 -107,431.4 -107,474 -97.8,483.3 -97.8,431.6 107.3,431.6 107.3,431.4 107.3,422.6 
			107.3,380 98.1,370.7 98.1,422.4 -107,422.4 		"/>
		<polygon class="st2" points="41.6,406 41.6,354.3 246.8,354.3 246.8,345.3 246.5,345.3 246.5,302.7 237.2,293.4 237.2,345.1 
			32.1,345.1 32.1,354.1 32.4,354.1 32.4,396.7 		"/>
		<polygon class="st2" points="7.2,465.5 7.1,465.5 7.1,516.9 16.3,526.2 16.3,526.2 16.5,526.3 16.5,474.6 221.6,474.6 
			221.6,465.6 221.6,465.6 221.6,423.1 212.3,413.7 212.3,465.5 7.2,465.5 		"/>
		<polygon class="st2" points="146.7,439.7 155.9,449.1 155.9,397.3 361.1,397.3 361.1,388.3 360.8,388.3 360.8,345.8 351.5,336.5 
			351.5,388.2 146.4,388.2 146.4,397.2 146.7,397.2 		"/>
		<polygon class="st2" points="500.2,319.9 500.2,311 500.2,268.5 490.9,259.2 490.9,310.9 285.8,310.9 285.8,311 285.8,319.9 
			285.8,362.4 295,371.8 295,320 500.2,320 		"/>
		<polygon class="st2" points="400.1,405.5 409.3,414.8 409.3,414.7 409.4,414.8 409.4,363.1 614.6,363.1 614.6,354.1 614.5,354.1 
			614.5,354.1 614.4,354.1 614.4,311.5 605.2,302.2 605.2,353.9 400,353.9 400,362.9 400.1,362.9 		"/>
		<polygon class="st2" points="171.5,276.8 171.6,276.8 171.6,319.3 180.8,328.7 180.8,277 386,277 386,268 385.9,268 385.9,225.4 
			376.7,216.1 376.7,267.8 171.5,267.8 		"/>
		<polygon class="st2" points="630.4,233.7 425.2,233.7 425.2,233.8 425.2,242.8 425.2,285.1 434.4,294.5 434.4,242.8 639.6,242.8 
			639.6,242.7 639.6,233.7 639.6,191.4 630.4,182.1 		"/>
		<polygon class="st2" points="1276.4,36 1276.4,87.8 1071.3,87.8 1071.3,88 1071.3,96.7 1071.3,139.4 1080.5,148.7 1080.5,97 
			1285.7,97 1285.7,96.7 1285.7,88 1285.7,45.4 		"/>
		<polygon class="st2" points="744.7,276.8 539.5,276.8 539.5,276.8 539.5,285.8 539.5,328.2 548.7,337.5 548.7,285.8 753.9,285.8 
			753.9,285.8 753.9,276.8 753.9,234.4 744.7,225.1 		"/>
		<polygon class="st2" points="320.2,199.7 525.4,199.7 525.4,199.5 525.4,190.7 525.4,148.1 516.2,138.8 516.2,190.5 311,190.5 
			311,190.7 311,199.5 311,242 320.2,251.4 		"/>
		<polygon class="st2" points="1022.8,122.8 817.6,122.8 817.6,123 817.6,131.8 817.6,174.4 826.8,183.7 826.8,132 1032,132 
			1032,131.8 1032,123 1032,80.4 1022.8,71.1 		"/>
		<polygon class="st2" points="991.5,-66.1 1196.7,-66.1 1196.7,-66.2 1196.7,-75.1 1196.7,-117.6 1187.5,-127 1187.5,-75.2 
			982.3,-75.2 982.3,-75.1 982.3,-66.2 982.3,-23.7 991.5,-14.4 		"/>
		<polygon class="st2" points="-82.1,311 -81.8,311 -81.8,353.6 -72.6,362.9 -72.6,311.2 132.6,311.2 132.6,302.2 132.3,302.2 
			132.3,259.6 123,250.3 123,302 -82.1,302 		"/>
		<polygon class="st2" points="66.5,233.9 271.7,233.9 271.7,233.7 271.7,224.9 271.7,182.3 262.5,173 262.5,224.7 57.3,224.7 
			57.3,224.9 57.3,233.7 57.3,276.3 66.5,285.6 		"/>
		<polygon class="st2" points="778.6,114.7 769.4,105.3 769.4,157.1 564.2,157.1 564.2,166.1 564.3,166.1 564.3,208.6 573.5,217.9 
			573.5,166.2 778.7,166.2 778.7,157.2 778.6,157.2 		"/>
		<polygon class="st2" points="884.1,199.5 679,199.5 679,199.7 679,208.5 679,251.1 688.2,260.4 688.2,208.7 893.4,208.7 
			893.4,208.5 893.4,199.7 893.4,157.1 884.1,147.8 		"/>
		<polygon class="st2" points="795,36.1 589.8,36.1 589.8,36.3 589.8,45.1 589.8,87.7 599.1,97 599.1,45.3 804.2,45.3 804.2,45.1 
			804.2,36.3 804.2,-6.2 795,-15.6 		"/>
		<polygon class="st2" points="738.5,-32 943.6,-32 943.6,-32.4 943.6,-41 943.6,-83.7 934.4,-93.1 934.4,-41.4 729.2,-41.4 
			729.2,-41 729.2,-32.4 729.2,10.4 738.5,19.7 		"/>
		<polygon class="st2" points="704,79.8 703.7,79.8 703.7,79.9 703.7,88.7 703.7,131.3 713,140.7 713,139.7 713.3,140.1 713.3,88.9 
			918.1,88.9 918.1,88.7 918.1,88.4 918.5,88.4 918.5,79.4 918.4,79.4 918.4,36.8 909.2,27.5 909.2,28.3 908.9,28 908.9,79.2 
			704,79.2 		"/>
		<polygon class="st2" points="1057.9,11.1 1057.9,10.9 1057.9,2.1 1057.9,-40.5 1048.7,-49.8 1048.7,1.9 843.5,1.9 843.5,2.1 
			843.5,10.9 843.5,53.5 852.8,62.8 852.8,11.1 		"/>
		<polygon class="st2" points="450.4,122.4 450.4,122.4 450.4,164.9 459.6,174.3 459.6,122.5 664.8,122.5 664.8,113.5 664.8,113.5 
			664.8,71 655.6,61.7 655.6,113.4 450.4,113.4 		"/>
		<polygon class="st2" points="1172.1,54 1172.1,45.1 1172.1,2.6 1162.9,-6.7 1162.9,45 957.7,45 957.7,45.1 957.7,54 957.7,96.5 
			967,105.8 967,54.1 1172.1,54.1 		"/>
		<polygon class="st2" points="475.5,2.1 475.6,2.1 475.6,44.6 484.8,53.9 484.8,2.2 690,2.2 690,-6.8 689.9,-6.8 689.9,-49.3 
			680.7,-58.7 680.7,-6.9 475.5,-6.9 		"/>
		<polygon class="st2" points="427.1,-24.4 427.1,27.3 221.9,27.3 221.9,36.3 221.9,36.3 221.9,78.8 231.2,88.1 231.2,36.4 
			436.3,36.4 436.3,27.4 436.3,27.4 436.3,-15.1 		"/>
		<polygon class="st2" points="370.6,-40.8 575.7,-40.8 575.7,-41 575.7,-49.8 575.7,-92.4 566.5,-101.7 566.5,-50 361.3,-50 
			361.3,-49.8 361.3,-41 361.3,1.6 370.6,10.9 		"/>
		<polygon class="st2" points="541.3,18.7 541.3,70.4 336.1,70.4 336.1,79.4 336.2,79.4 336.2,121.9 345.4,131.2 345.4,79.5 
			550.6,79.5 550.6,70.5 550.5,70.5 550.5,28 		"/>
		<polygon class="st2" points="-198.4,913.1 6.3,913.1 6.3,913 6.6,913 6.6,912.7 6.8,912.7 6.8,903.7 6.3,903.7 6.3,861.7 
			-3,852.4 -3,903.7 -207.6,903.7 -207.6,904 -207.8,904 -207.8,904.1 -208.1,904.1 -208.1,913.1 -207.8,913.1 -207.8,955.4 
			-198.6,964.8 -198.6,964.2 -198.4,964.4 		"/>
		<polygon class="st2" points="-182.7,783.4 -182.7,792.2 -182.7,834.7 -173.5,844.1 -173.5,844 -173.3,844.3 -173.3,792.5 
			31.9,792.5 31.9,792.4 31.9,783.5 31.9,741 22.7,731.7 22.7,731.7 22.5,731.5 22.5,783.2 -182.7,783.2 		"/>
		<polygon class="st2" points="80.2,809.8 80.5,810 80.5,810 80.5,758.3 285.6,758.3 285.6,758.3 285.6,758.1 285.6,749.3 
			285.6,749.3 285.6,706.7 276.4,697.4 276.4,749.1 71.2,749.1 71,749.1 71,800.5 80.2,809.8 		"/>
		<polygon class="st2" points="-59.2,887.1 -59.2,887.1 -59,887.3 -59,835.6 146.2,835.6 146.2,835.4 146.2,826.6 146.2,784 
			137,774.7 137,774.8 136.9,774.7 136.9,774.7 136.7,774.5 136.7,826.2 -68.5,826.2 -68.5,835.2 -68.4,835.2 -68.4,877.8 		"/>
		<polygon class="st2" points="194.4,852.9 194.7,853.1 194.7,853 194.7,853.1 194.7,801.4 399.8,801.4 399.8,801.3 399.9,801.3 
			399.9,792.3 399.8,792.3 399.8,749.8 390.6,740.5 390.6,792.2 185.4,792.2 185.2,792.2 185.2,843.6 194.4,852.9 		"/>
		<polygon class="st2" points="-157.5,663 -157.6,663 -157.6,672 -157.5,672 -157.5,714.4 -148.3,723.7 -148.3,723.7 -148,723.9 
			-148,672.2 57.1,672.2 57.1,663.2 56.9,663.2 56.9,663 56.8,663 56.8,620.6 47.6,611.3 47.6,663 -157.5,663 		"/>
		<polygon class="st2" points="398,1059.3 398,1007.8 603.1,1007.8 603.1,1007.6 603.2,1007.6 603.2,998.6 603.1,998.6 603.1,956.4 
			593.9,947.1 593.9,998.6 388.8,998.6 388.8,998.8 388.7,998.8 388.7,1007.8 388.8,1007.8 388.8,1050 		"/>
		<polygon class="st2" points="568.8,1118.8 363.6,1118.8 363.6,1127.8 578,1127.8 578,1076.4 568.8,1067.1 		"/>
		<polygon class="st2" points="512.3,1102.4 512.3,1050.9 717.4,1050.9 717.4,1050.7 717.5,1050.7 717.5,1041.7 717.4,1041.7 
			717.4,999.5 708.2,990.1 708.2,1041.7 503.1,1041.7 503.1,1041.9 503,1041.9 503,1050.9 503.1,1050.9 503.1,1093.1 		"/>
		<polygon class="st2" points="463.8,1084.8 463.8,1075.9 463.8,1033.4 454.5,1024 454.5,1075.8 249.4,1075.8 249.4,1075.9 
			249.4,1084.8 249.4,1127.3 258.6,1136.6 258.6,1084.9 463.8,1084.9 		"/>
		<polygon class="st2" points="169.5,973.2 169.5,921.6 374.7,921.6 374.7,921.5 374.7,921.5 374.7,912.5 374.7,912.5 374.7,870.2 
			365.5,860.8 365.5,912.5 160.3,912.5 160.3,912.6 160.3,912.6 160.3,921.6 160.3,921.6 160.3,963.9 		"/>
		<polygon class="st2" points="144.4,1093.6 144.4,1041.8 349.6,1041.8 349.6,1032.8 349.5,1032.8 349.5,990.3 340.3,981 
			340.3,1032.7 135.1,1032.7 135.1,1041.7 135.2,1041.7 135.2,1084.2 		"/>
		<polygon class="st2" points="200.8,1110 -4.3,1110 -4.3,1119 210.1,1119 210.1,1067.6 200.8,1058.3 		"/>
		<polygon class="st2" points="936.7,1127.6 731.5,1127.6 731.5,1136.6 945.9,1136.6 945.9,1085.3 936.7,1075.9 		"/>
		<polygon class="st2" points="831.7,1093.6 831.7,1084.8 831.7,1042.2 822.5,1032.9 822.5,1084.6 617.3,1084.6 617.3,1084.8 
			617.3,1093.6 617.3,1136.1 626.5,1145.5 626.5,1093.8 831.7,1093.8 		"/>
		<polygon class="st2" points="359.1,603.7 564.2,603.7 564.2,594.7 564.2,552.3 555,543 555,594.7 349.8,594.7 349.8,603.7 
			349.8,646.1 359.1,655.4 		"/>
		<polygon class="st2" points="-43.3,715.1 -43.3,757.4 -34,766.8 -34,766.7 -33.8,767 -33.8,715.2 171.3,715.2 171.3,706.3 
			171.1,706.3 171.1,706.1 171.1,663.7 161.9,654.3 161.9,706.1 -43.3,706.1 		"/>
		<polygon class="st2" points="105.4,637.9 310.5,637.9 310.5,637.8 310.5,628.9 310.5,586.4 301.3,577 301.3,628.8 96.1,628.8 
			96.1,628.9 96.1,637.8 96.1,680.3 105.4,689.6 		"/>
		<polygon class="st2" points="219.7,732.7 219.7,681 424.8,681 424.8,672 424.7,672 424.7,629.4 415.5,620.1 415.5,671.8 
			210.3,671.8 210.3,680.8 210.4,680.8 210.4,723.4 		"/>
		<polygon class="st2" points="-132.4,542.8 -132.4,551.6 -132.4,594.2 -123.1,603.5 -123.1,603.4 -123,603.5 -123,551.8 82,551.8 
			82.1,551.8 82.1,542.8 82,542.8 82,500.2 72.8,490.9 72.8,542.6 -132.4,542.6 		"/>
		<polygon class="st2" points="130.6,517.5 335.7,517.5 335.7,508.6 335.7,466.2 326.5,456.8 326.5,508.6 121.3,508.6 121.3,517.5 
			121.3,559.9 130.6,569.3 		"/>
		<polygon class="st2" points="-8.8,646.6 -8.8,594.8 196.3,594.8 196.3,585.8 196.2,585.8 196.2,543.3 187,534 187,585.7 
			-18.1,585.7 -18.1,594.7 -18.1,594.7 -18.1,637.2 		"/>
		<polygon class="st2" points="694.4,517.4 489.3,517.4 489.3,517.6 489.3,526.4 489.3,569 498.5,578.3 498.5,526.6 703.7,526.6 
			703.7,526.4 703.7,517.6 703.7,475 694.4,465.7 		"/>
		<polygon class="st2" points="808.6,508.7 808.6,560.5 603.5,560.5 603.5,569.5 603.5,569.5 603.5,612 612.8,621.3 612.8,569.6 
			817.9,569.6 817.9,560.6 817.9,560.6 817.9,518.1 		"/>
		<polygon class="st2" points="1071.6,535.3 1071.6,526.4 1071.6,483.9 1062.3,474.6 1062.3,526.3 857.2,526.3 857.2,526.4 
			857.2,535.3 857.2,577.8 866.4,587.1 866.4,535.4 1071.6,535.4 		"/>
		<polygon class="st2" points="260.8,431.4 260.8,440.3 260.8,482.8 270,492.1 270,492 270.1,492.1 270.1,440.4 475.2,440.4 
			475.2,440.4 475.3,440.4 475.3,431.4 475.2,431.4 475.2,388.9 465.9,379.5 465.9,431.3 260.8,431.3 		"/>
		<polygon class="st2" points="375.1,525.9 384.3,535.2 384.3,483.5 589.4,483.5 589.4,474.5 589.4,474.5 589.4,431.9 580.1,422.6 
			580.1,474.3 375,474.3 375,483.3 375.1,483.3 		"/>
		<polygon class="st2" points="235.6,560.6 235.6,603 244.8,612.3 244.8,560.6 449.9,560.6 449.9,551.6 449.9,509.2 440.7,499.9 
			440.7,551.6 235.6,551.6 		"/>
		<polygon class="st2" points="448.4,818.8 448.4,767.1 653.5,767.1 653.5,758.1 653.2,758.1 653.2,715.6 644,706.3 644,758 
			438.8,758 438.8,767 439.1,767 439.1,809.5 		"/>
		<polygon class="st2" points="514.1,844.3 514.1,835.4 514.1,792.9 504.9,783.5 504.9,835.3 299.7,835.3 299.7,835.4 299.7,844.3 
			299.7,886.8 308.9,896.1 308.9,844.4 514.1,844.4 		"/>
		<polygon class="st2" points="334.2,775.8 334.2,724.1 539.3,724.1 539.3,715.1 539,715.1 539,672.5 529.8,663.2 529.8,714.9 
			324.6,714.9 324.6,723.9 324.9,723.9 324.9,766.4 		"/>
		<polygon class="st2" points="95.9,1075.9 95.9,1067.1 95.9,1024.5 86.6,1015.2 86.6,1066.9 -118.5,1066.9 -118.5,1067.1 
			-118.5,1075.9 -118.5,1118.5 -109.3,1127.8 -109.3,1076.1 95.9,1076.1 		"/>
		<polygon class="st2" points="-84.2,1008.1 -84.2,956.4 120.6,956.4 120.6,956.4 120.9,956.4 120.9,947.4 120.6,947.4 120.6,905 
			111.4,895.7 111.4,947.4 -93.5,947.4 -93.5,947.4 -93.8,947.4 -93.8,956.4 -93.5,956.4 -93.5,998.8 		"/>
		<polygon class="st2" points="46.3,921.7 55.6,931 55.6,879.3 260.7,879.3 260.7,870.3 260.4,870.3 260.4,869.5 260.4,827.1 
			251.2,817.8 251.2,869.5 46,869.5 46,869.5 46,878.5 46,920.9 46.3,921.2 		"/>
		<polygon class="st2" points="30,1050.4 30.1,1050.5 30.1,999.7 235.2,999.7 235.2,998.8 235.3,998.8 235.3,998.6 235.3,989.8 
			235.3,947.2 226.1,937.9 226.1,989.6 20.9,989.6 20.9,989.8 20.9,990.7 20.8,990.7 20.8,1042 30,1051.4 		"/>
		<polygon class="st2" points="1021.1,724.4 1011.9,715.1 1011.9,715.2 1011.9,715.1 1011.9,766.8 806.8,766.8 806.8,766.9 
			806.7,766.9 806.7,775.9 806.8,775.9 806.8,818.4 816.1,827.7 816.1,827.7 816.1,827.7 816.1,776 1021.2,776 1021.2,776 
			1021.2,776 1021.2,767 1021.1,767 		"/>
		<polygon class="st2" points="767.5,758.6 758.3,749.3 758.3,749.4 758.3,749.4 758.3,801 553.1,801 553.1,801.1 553.1,801.1 
			553.1,810.1 553.4,810.1 553.4,852.6 562.6,861.9 562.6,810.2 767.8,810.2 767.8,801.2 767.5,801.2 		"/>
		<polygon class="st2" points="669.2,637.6 464.1,637.6 464.1,637.8 464.1,646.6 464.1,689.1 473.3,698.5 473.3,646.8 678.4,646.8 
			678.4,646.6 678.4,637.8 678.4,595.2 669.2,585.9 		"/>
		<polygon class="st2" points="783.4,628.9 783.4,680.6 578.3,680.6 578.3,689.6 578.3,689.6 578.3,732.2 587.6,741.5 587.6,689.8 
			792.7,689.8 792.7,680.8 792.7,680.8 792.7,638.3 		"/>
		<polygon class="st2" points="1137,165.2 931.9,165.2 931.9,165.3 931.9,174.2 931.9,216.7 941.1,226 941.1,174.3 1146.2,174.3 
			1146.2,174.2 1146.2,165.3 1146.2,122.8 1137,113.4 		"/>
		<polygon class="st2" points="1251.2,156.5 1251.2,208.2 1046.1,208.2 1046.1,217.2 1046.1,217.2 1046.1,259.8 1055.4,269.1 
			1055.4,217.4 1260.5,217.4 1260.5,208.4 1260.5,208.4 1260.5,165.8 		"/>
		<polygon class="st2" points="997.6,242.4 792.4,242.4 792.4,242.5 792.4,251.4 792.4,293.8 801.7,303.2 801.7,251.4 1006.8,251.4 
			1006.8,251.4 1006.8,242.4 1006.8,200.1 997.6,190.7 		"/>
		<polygon class="st2" points="1111.8,233.8 1111.8,285.5 906.6,285.5 906.6,294.5 906.9,294.5 906.9,337.1 916.2,346.4 
			916.2,294.7 1121.3,294.7 1121.3,285.7 1121,285.7 1121,243.1 		"/>
		<polygon class="st2" points="1235.5,328.8 1235.3,328.8 1235.3,286.2 1226.1,276.9 1226.1,328.6 1020.9,328.6 1020.9,337.6 
			1021.1,337.6 1021.1,380.2 1030.4,389.5 1030.4,337.8 1235.5,337.8 		"/>
		<polygon class="st2" points="956.7,440.8 947.5,431.5 947.5,483.2 742.3,483.2 742.3,492.2 743,492.2 743,534.7 752.2,544 
			752.2,492.3 957.4,492.3 957.4,483.3 956.7,483.3 		"/>
		<polygon class="st2" points="1096.1,414.9 1096.1,406.1 1096.1,363.5 1086.9,354.2 1086.9,405.9 881.7,405.9 881.7,406.1 
			881.7,414.9 881.7,457.5 891,466.8 891,415.1 1096.1,415.1 		"/>
		<polygon class="st2" points="1210.4,458 1210.4,449.1 1210.4,406.6 1201.2,397.2 1201.2,397.3 1201.1,397.3 1201.1,449 996,449 
			996,449 995.9,449 995.9,458 996,458 996,500.5 1005.2,509.9 1005.2,458.1 1210.4,458.1 		"/>
		<polygon class="st2" points="1037.1,594.4 1037.1,646.1 832,646.1 832,646.7 832,655.1 832,698.1 841.2,707.4 841.2,707.3 
			841.2,707.3 841.2,707 841.3,707 841.3,655.7 1046.4,655.7 1046.4,655.6 1046.4,655.6 1046.4,655.3 1046.4,655.3 1046.4,646.3 
			1046.4,646.3 1046.4,603.8 		"/>
		<polygon class="st2" points="1185.8,578 1185.8,569 1185.8,526.9 1176.6,517.6 1176.6,569 971.5,569 971.5,569.3 971.5,578.3 
			971.5,620.4 980.7,629.7 980.7,578.3 1185.8,578.3 		"/>
		<polygon class="st2" points="922.9,603.5 717.8,603.5 717.8,603.6 717.8,612.6 717.8,654.9 727,664.2 727,612.6 932.1,612.6 
			932.1,612.5 932.1,603.5 932.1,561.2 922.9,551.9 		"/>
		<polygon class="st2" points="858.4,268.1 858.4,319.8 653.2,319.8 653.2,319.9 653.2,328.8 653.2,371.3 662.5,380.7 662.5,380.1 
			662.9,380.6 662.9,328.9 867.6,328.9 867.6,328.9 868.1,328.9 868.1,319.9 867.6,319.9 867.6,277.4 		"/>
		<polygon class="st2" points="981.8,320.4 972.6,311.1 972.6,362.8 767.4,362.8 767.4,371.8 767.5,371.8 767.5,414.4 776.7,423.7 
			776.7,372 981.9,372 981.9,363 981.8,363 		"/>
		<polygon class="st2" points="728.2,354.7 719,345.4 719,397.1 513.8,397.1 513.8,406.1 514.5,406.1 514.5,448.6 523.7,457.9 
			523.7,406.2 728.9,406.2 728.9,397.2 728.2,397.2 		"/>
		<polygon class="st2" points="833.2,388.4 833.2,440.1 628,440.1 628,449.1 628.7,449.1 628.7,491.7 637.9,501 637.9,449.3 
			843.1,449.3 843.1,440.3 842.4,440.3 842.4,397.8 		"/>
		<polygon class="st2" points="1249.6,810.6 1240.4,801.3 1240.4,853 1035.2,853 1035.2,862 1035.3,862 1035.3,904.6 1044.6,913.9 
			1044.6,862.2 1249.7,862.2 1249.7,853.2 1249.6,853.2 		"/>
		<polygon class="st2" points="996,844.8 986.8,835.5 986.8,887.2 781.6,887.2 781.6,896.2 781.8,896.2 781.8,938.8 791.1,948.1 
			791.1,896.4 996.2,896.4 996.2,887.4 996,887.4 		"/>
		<polygon class="st2" points="1135.4,818.9 1135.4,810.1 1135.4,767.6 1126.2,758.2 1126.2,809.9 921,809.9 921,810.1 921,818.9 
			921,861.5 930.3,870.8 930.3,819.1 1135.4,819.1 		"/>
		<polygon class="st2" points="906.9,732.9 906.9,732.9 906.9,732.7 906.9,723.9 906.9,681.3 897.7,672 897.7,672.1 897.7,672.1 
			897.7,723.7 692.5,723.7 692.5,723.8 692.5,723.8 692.5,724 692.5,732.8 692.5,775.4 701.8,784.7 701.8,784.6 701.8,784.6 
			701.8,733 906.9,733 		"/>
		<polygon class="st2" points="872.5,792.5 872.5,844.2 667.3,844.2 667.3,853.2 667.6,853.2 667.6,895.7 676.9,905.1 676.9,905 
			676.9,905 676.9,853.3 882,853.3 882,853.3 882,853.3 882,844.3 881.7,844.3 881.7,801.8 		"/>
		<polygon class="st2" points="1160.6,698.7 1160.6,698.7 1160.6,689.7 1160.6,689.7 1160.6,647.3 1151.4,638 1151.4,689.7 
			946.3,689.7 946.3,689.7 946.2,689.7 946.2,698.7 946.2,741.1 955.5,750.4 955.5,750.4 955.5,750.4 955.5,698.7 1160.6,698.7 		
			"/>
		<polygon class="st2" points="1274.8,690.4 1265.6,681.1 1265.6,732.7 1060.5,732.7 1060.5,732.8 1060.5,732.8 1060.5,741.8 
			1060.5,784.2 1069.7,793.5 1069.7,793.4 1069.7,793.4 1069.7,741.8 1274.8,741.8 1274.8,741.7 1274.9,741.7 1274.9,732.7 
			1274.8,732.7 		"/>
		<polygon class="st2" points="1199.6,1051.4 1190.4,1042 1190.4,1093.6 985.2,1093.6 985.2,1093.7 985.2,1093.7 985.2,1102.7 
			985.2,1102.7 985.2,1145 994.4,1154.3 994.4,1102.7 1199.6,1102.7 1199.6,1102.6 1199.6,1102.6 1199.6,1093.6 1199.6,1093.6 		"/>
		<polygon class="st2" points="1224.7,931 1215.5,921.6 1215.5,973.4 1010.3,973.4 1010.3,973.6 1010.3,982.4 1010.3,1024.9 
			1019.6,1034.3 1019.6,1034.2 1019.6,1034.2 1019.6,982.6 1224.7,982.6 1224.7,982.5 1224.8,982.5 1224.8,973.5 1224.7,973.5 		"/>
		<polygon class="st2" points="961.9,956 961.8,955.9 961.8,1007.6 756.7,1007.6 756.7,1007.6 756.6,1007.6 756.6,1016.6 
			756.7,1016.6 756.7,1059.2 765.9,1068.5 765.9,1016.8 971.1,1016.8 971.1,1016.6 971.1,1007.8 971.1,965.2 961.9,955.9 		"/>
		<polygon class="st2" points="1076.1,999 1076.1,1050.5 871,1050.5 871,1050.7 870.9,1050.7 870.9,1059.7 871,1059.7 871,1101.9 
			880.2,1111.2 880.2,1059.7 1085.3,1059.7 1085.3,1059.5 1085.4,1059.5 1085.4,1050.5 1085.3,1050.5 1085.3,1008.3 		"/>
		<polygon class="st2" points="1110.5,939.5 1110.5,939.3 1110.5,930.5 1110.5,930.5 1110.5,887.9 1101.3,878.6 1101.3,930.3 
			896.1,930.3 896.1,930.5 896.1,930.5 896.1,939.3 896.1,981.9 896.1,981.9 905.3,991.2 905.3,991.2 905.3,939.5 1110.5,939.5 		
			"/>
		<polygon class="st2" points="856.8,973.6 856.8,964.7 856.8,922.2 847.6,912.8 847.6,964.6 642.4,964.6 642.4,964.7 642.4,973.6 
			642.4,1016.1 651.6,1025.4 651.6,973.7 856.8,973.7 		"/>
		<polygon class="st2" points="488.9,964.6 489,964.6 489,955.6 488.9,955.6 488.9,913.3 479.7,904 479.7,955.6 274.6,955.6 
			274.6,955.7 274.5,955.7 274.5,964.7 274.6,964.7 274.6,1006.9 283.8,1016.3 283.8,964.7 488.9,964.7 		"/>
		<polygon class="st2" points="423.1,939.1 423.2,939.2 423.2,887.6 628.3,887.6 628.3,887.5 628.4,887.5 628.4,878.5 628.3,878.5 
			628.3,835.9 619.1,826.6 619.1,826.7 619.1,826.7 619.1,878.3 413.9,878.3 413.9,878.4 413.9,878.4 413.9,878.6 413.9,887.4 
			413.9,930 423.1,939.3 		"/>
		<polygon class="st2" points="537.4,982.4 537.4,930.6 742.6,930.6 742.6,921.6 742.5,921.6 742.5,879.1 733.3,869.8 733.3,921.5 
			528.1,921.5 528.1,930.5 528.2,930.5 528.2,973 		"/>
	</g>
	<g style="clip-path:url(#SVGID_00000158736609322012071600000006445852447359195018_);">
		<polygon class="st2" points="1195.2,192.2 1195.2,140.5 1400.3,140.5 1400.3,131.5 1400.2,131.5 1400.2,88.9 1391,79.6 
			1391,131.3 1185.9,131.3 1185.9,140.3 1185.9,140.3 1185.9,182.9 		"/>
		<polygon class="st2" points="991.8,-66 1197,-66 1197,-75 982.6,-75 982.6,-23.6 991.8,-14.3 		"/>
		<polygon class="st2" points="1096.9,19.4 1106.1,28.8 1106.1,-23 1311.2,-23 1311.2,-31.9 1096.9,-31.9 		"/>
		<polygon class="st2" points="1135.8,423.4 1145,432.8 1145,381.1 1350.2,381.1 1350.2,372.1 1349.9,372.1 1349.9,329.5 
			1340.7,320.2 1340.7,371.9 1135.5,371.9 1135.5,380.9 1135.8,380.9 		"/>
		<polygon class="st2" points="1489.3,303.6 1489.3,294.8 1489.3,252.2 1480.1,242.9 1480.1,294.6 1274.9,294.6 1274.9,294.8 
			1274.9,303.6 1274.9,346.1 1284.2,355.5 1284.2,303.8 1489.3,303.8 		"/>
		<polygon class="st2" points="1389.2,389.2 1398.4,398.5 1398.4,398.4 1398.6,398.6 1398.6,346.8 1603.7,346.8 1603.7,337.8 
			1603.6,337.8 1603.6,337.8 1603.5,337.8 1603.5,295.3 1594.3,285.9 1594.3,337.6 1389.1,337.6 1389.1,346.6 1389.2,346.6 		"/>
		<polygon class="st2" points="1160.6,260.5 1160.7,260.5 1160.7,303.1 1170,312.4 1170,260.7 1375.1,260.7 1375.1,251.7 
			1375,251.7 1375,209.1 1365.8,199.8 1365.8,251.5 1160.6,251.5 		"/>
		<polygon class="st2" points="1619.5,217.5 1414.3,217.5 1414.3,217.5 1414.3,226.5 1414.3,268.9 1423.6,278.2 1423.6,226.5 
			1628.7,226.5 1628.7,226.5 1628.7,217.5 1628.7,175.1 1619.5,165.8 		"/>
		<polygon class="st2" points="2265.6,19.8 2265.6,71.5 2060.4,71.5 2060.4,71.7 2060.4,80.5 2060.4,123.1 2069.6,132.5 
			2069.6,80.7 2274.8,80.7 2274.8,80.5 2274.8,71.7 2274.8,29.1 		"/>
		<polygon class="st2" points="1733.8,260.5 1528.6,260.5 1528.6,260.5 1528.6,269.5 1528.6,311.9 1537.9,321.2 1537.9,269.5 
			1743,269.5 1743,269.5 1743,260.5 1743,218.1 1733.8,208.8 		"/>
		<polygon class="st2" points="1309.4,183.4 1514.5,183.4 1514.5,183.2 1514.5,174.4 1514.5,131.8 1505.3,122.5 1505.3,174.2 
			1300.1,174.2 1300.1,174.4 1300.1,183.2 1300.1,225.8 1309.4,235.1 		"/>
		<polygon class="st2" points="2011.9,106.5 1806.7,106.5 1806.7,106.7 1806.7,115.5 1806.7,158.1 1816,167.4 1816,115.7 
			2021.1,115.7 2021.1,115.5 2021.1,106.7 2021.1,64.1 2011.9,54.8 		"/>
		<polygon class="st2" points="1980.7,-82.4 2185.8,-82.4 2185.8,-82.5 2185.8,-91.4 2185.8,-133.9 2176.6,-143.2 2176.6,-91.5 
			1971.4,-91.5 1971.4,-91.4 1971.4,-82.5 1971.4,-40 1980.7,-30.6 		"/>
		<polygon class="st2" points="1767.8,98.4 1758.5,89.1 1758.5,140.8 1553.4,140.8 1553.4,149.8 1553.5,149.8 1553.5,192.3 
			1562.7,201.7 1562.7,150 1767.8,150 1767.8,141 1767.8,141 		"/>
		<polygon class="st2" points="1873.3,183.2 1668.1,183.2 1668.1,183.4 1668.1,192.2 1668.1,234.8 1677.4,244.1 1677.4,192.4 
			1882.5,192.4 1882.5,192.2 1882.5,183.4 1882.5,140.9 1873.3,131.5 		"/>
		<polygon class="st2" points="1784.1,19.9 1579,19.9 1579,20 1579,28.9 1579,71.4 1588.2,80.7 1588.2,29 1793.4,29 1793.4,28.9 
			1793.4,20 1793.4,-22.5 1784.1,-31.9 		"/>
		<polygon class="st2" points="1727.6,-48.3 1932.8,-48.3 1932.8,-48.6 1932.8,-57.3 1932.8,-100 1923.5,-109.4 1923.5,-57.6 
			1718.4,-57.6 1718.4,-57.3 1718.4,-48.6 1718.4,-5.9 1727.6,3.4 		"/>
		<polygon class="st2" points="1693.2,63.5 1692.9,63.5 1692.9,63.7 1692.9,72.5 1692.9,115 1702.1,124.4 1702.1,123.4 
			1702.5,123.8 1702.5,72.7 1907.3,72.7 1907.3,72.5 1907.3,72.1 1907.6,72.1 1907.6,63.1 1907.6,63.1 1907.6,20.5 1898.3,11.2 
			1898.3,12.1 1898,11.8 1898,62.9 1693.2,62.9 		"/>
		<polygon class="st2" points="2047.1,-5.2 2047.1,-5.4 2047.1,-14.2 2047.1,-56.8 2037.8,-66.1 2037.8,-14.4 1832.7,-14.4 
			1832.7,-14.2 1832.7,-5.4 1832.7,37.2 1841.9,46.5 1841.9,-5.2 		"/>
		<polygon class="st2" points="1439.5,106.2 1439.6,106.2 1439.6,148.6 1448.8,158 1448.8,106.3 1653.9,106.3 1653.9,97.3 
			1653.9,97.3 1653.9,54.8 1644.7,45.4 1644.7,97.2 1439.5,97.2 		"/>
		<polygon class="st2" points="2161.3,37.7 2161.3,28.9 2161.3,-13.7 2152,-23 2152,28.7 1946.9,28.7 1946.9,28.9 1946.9,37.7 
			1946.9,80.2 1956.1,89.6 1956.1,37.9 2161.3,37.9 		"/>
		<polygon class="st2" points="1464.7,-14.2 1464.8,-14.2 1464.8,28.3 1474,37.7 1474,-14.1 1679.1,-14.1 1679.1,-23.1 
			1679.1,-23.1 1679.1,-65.6 1669.8,-74.9 1669.8,-23.2 1464.7,-23.2 		"/>
		<polygon class="st2" points="1416.2,-40.7 1416.2,11 1211.1,11 1211.1,20 1211.1,20 1211.1,62.5 1220.3,71.8 1220.3,20.1 
			1425.5,20.1 1425.5,11.1 1425.4,11.1 1425.4,-31.4 		"/>
		<polygon class="st2" points="1359.7,-57.1 1564.9,-57.1 1564.9,-57.3 1564.9,-66.1 1564.9,-108.7 1555.6,-118 1555.6,-66.3 
			1350.5,-66.3 1350.5,-66.1 1350.5,-57.3 1350.5,-14.7 1359.7,-5.4 		"/>
		<polygon class="st2" points="1530.4,2.4 1530.4,54.1 1325.3,54.1 1325.3,63.1 1325.3,63.1 1325.3,105.6 1334.6,114.9 1334.6,63.2 
			1539.7,63.2 1539.7,54.2 1539.7,54.2 1539.7,11.7 		"/>
		<polygon class="st2" points="1183.6,836.6 1183.8,836.8 1183.8,836.7 1183.9,836.8 1183.9,785.1 1389,785.1 1389,785.1 
			1389,785.1 1389,776.1 1389,776.1 1389,733.5 1379.7,724.2 1379.7,775.9 1174.6,775.9 1174.4,775.9 1174.4,827.3 1183.6,836.6 		
			"/>
		<polygon class="st2" points="1387.2,1043.1 1387.2,991.5 1592.2,991.5 1592.2,991.4 1592.3,991.4 1592.3,982.4 1592.2,982.4 
			1592.2,940.1 1583,930.8 1583,982.4 1377.9,982.4 1377.9,982.5 1377.8,982.5 1377.8,991.5 1377.9,991.5 1377.9,1033.7 		"/>
		<polygon class="st2" points="1557.9,1102.5 1352.7,1102.5 1352.7,1111.5 1567.1,1111.5 1567.1,1060.1 1557.9,1050.8 		"/>
		<polygon class="st2" points="1501.5,1086.1 1501.5,1034.6 1706.5,1034.6 1706.5,1034.4 1706.6,1034.4 1706.6,1025.4 
			1706.5,1025.4 1706.5,983.2 1697.3,973.9 1697.3,1025.4 1492.2,1025.4 1492.2,1025.6 1492.1,1025.6 1492.1,1034.6 1492.2,1034.6 
			1492.2,1076.8 		"/>
		<polygon class="st2" points="1452.9,1068.5 1452.9,1059.6 1452.9,1017.1 1443.7,1007.8 1443.7,1059.5 1238.5,1059.5 
			1238.5,1059.6 1238.5,1068.5 1238.5,1111 1247.8,1120.4 1247.8,1068.6 1452.9,1068.6 		"/>
		<polygon class="st2" points="1158.7,956.9 1158.7,905.3 1363.8,905.3 1363.8,905.2 1363.8,905.2 1363.8,896.2 1363.8,896.2 
			1363.8,853.9 1354.6,844.6 1354.6,896.2 1149.5,896.2 1149.5,896.3 1149.4,896.3 1149.4,905.3 1149.5,905.3 1149.5,947.6 		"/>
		<polygon class="st2" points="1133.6,1077.3 1133.6,1025.6 1338.7,1025.6 1338.7,1016.6 1338.6,1016.6 1338.6,974 1329.4,964.7 
			1329.4,1016.4 1124.2,1016.4 1124.2,1025.4 1124.3,1025.4 1124.3,1068 		"/>
		<polygon class="st2" points="1925.8,1111.4 1720.6,1111.4 1720.6,1120.4 1935,1120.4 1935,1069 1925.8,1059.6 		"/>
		<polygon class="st2" points="1820.8,1077.3 1820.8,1068.5 1820.8,1025.9 1811.6,1016.6 1811.6,1068.3 1606.4,1068.3 
			1606.4,1068.5 1606.4,1077.3 1606.4,1119.9 1615.7,1129.2 1615.7,1077.5 1820.8,1077.5 		"/>
		<polygon class="st2" points="1348.2,587.4 1553.4,587.4 1553.4,578.4 1553.4,536 1544.1,526.7 1544.1,578.4 1339,578.4 
			1339,587.4 1339,629.8 1348.2,639.1 		"/>
		<polygon class="st2" points="1094.5,621.6 1299.7,621.6 1299.7,621.5 1299.7,612.6 1299.7,570.1 1290.4,560.8 1290.4,612.5 
			1085.3,612.5 1085.3,612.6 1085.3,621.5 1085.3,664 1094.5,673.4 		"/>
		<polygon class="st2" points="1208.8,716.4 1208.8,664.7 1414,664.7 1414,655.7 1413.9,655.7 1413.9,613.1 1404.7,603.8 
			1404.7,655.5 1199.5,655.5 1199.5,664.5 1199.6,664.5 1199.6,707.1 		"/>
		<polygon class="st2" points="1119.7,501.3 1324.9,501.3 1324.9,492.3 1324.9,449.9 1315.7,440.6 1315.7,492.3 1110.5,492.3 
			1110.5,501.3 1110.5,543.7 1119.7,553 		"/>
		<polygon class="st2" points="1683.6,501.1 1478.4,501.1 1478.4,501.3 1478.4,510.1 1478.4,552.7 1487.6,562 1487.6,510.3 
			1692.8,510.3 1692.8,510.1 1692.8,501.3 1692.8,458.7 1683.6,449.4 		"/>
		<polygon class="st2" points="1797.8,492.5 1797.8,544.2 1592.6,544.2 1592.6,553.2 1592.7,553.2 1592.7,595.7 1601.9,605.1 
			1601.9,553.3 1807.1,553.3 1807.1,544.4 1807,544.4 1807,501.8 		"/>
		<polygon class="st2" points="2060.7,519 2060.7,510.1 2060.7,467.6 2051.5,458.3 2051.5,510 1846.3,510 1846.3,510.1 1846.3,519 
			1846.3,561.5 1855.5,570.8 1855.5,519.1 2060.7,519.1 		"/>
		<polygon class="st2" points="1249.9,415.1 1249.9,424 1249.9,466.5 1259.1,475.9 1259.1,475.7 1259.2,475.8 1259.2,424.1 
			1464.3,424.1 1464.3,424.1 1464.4,424.1 1464.4,415.1 1464.3,415.1 1464.3,372.6 1455.1,363.3 1455.1,415 1249.9,415 		"/>
		<polygon class="st2" points="1364.2,509.6 1373.4,518.9 1373.4,467.2 1578.6,467.2 1578.6,458.2 1578.5,458.2 1578.5,415.6 
			1569.3,406.3 1569.3,458 1364.1,458 1364.1,467 1364.2,467 		"/>
		<polygon class="st2" points="1224.7,544.4 1224.7,586.7 1233.9,596.1 1233.9,544.4 1439.1,544.4 1439.1,535.4 1439.1,493 
			1429.9,483.6 1429.9,535.4 1224.7,535.4 		"/>
		<polygon class="st2" points="1437.5,802.6 1437.5,750.9 1642.7,750.9 1642.7,741.9 1642.4,741.9 1642.4,699.3 1633.1,690 
			1633.1,741.7 1428,741.7 1428,750.7 1428.3,750.7 1428.3,793.2 		"/>
		<polygon class="st2" points="1503.2,828 1503.2,819.1 1503.2,776.6 1494,767.3 1494,819 1288.9,819 1288.9,819.1 1288.9,828 
			1288.9,870.5 1298.1,879.9 1298.1,828.1 1503.2,828.1 		"/>
		<polygon class="st2" points="1323.3,759.5 1323.3,707.8 1528.5,707.8 1528.5,698.8 1528.2,698.8 1528.2,656.2 1518.9,646.9 
			1518.9,698.6 1313.8,698.6 1313.8,707.6 1314.1,707.6 1314.1,750.2 		"/>
		<polygon class="st2" points="2010.3,708.1 2001.1,698.8 2001.1,698.9 2001.1,698.9 2001.1,750.5 1795.9,750.5 1795.9,750.6 
			1795.9,750.6 1795.9,759.6 1796,759.6 1796,802.1 1805.2,811.5 1805.2,811.4 1805.2,811.4 1805.2,759.7 2010.4,759.7 
			2010.4,759.7 2010.4,759.7 2010.4,750.7 2010.3,750.7 		"/>
		<polygon class="st2" points="1756.7,742.4 1747.4,733 1747.4,733.1 1747.4,733.1 1747.4,784.7 1542.3,784.7 1542.3,784.8 
			1542.3,784.8 1542.3,793.8 1542.6,793.8 1542.6,836.3 1551.8,845.6 1551.8,793.9 1757,793.9 1757,784.9 1756.7,784.9 		"/>
		<polygon class="st2" points="1658.4,621.3 1453.2,621.3 1453.2,621.5 1453.2,630.3 1453.2,672.9 1462.4,682.2 1462.4,630.5 
			1667.6,630.5 1667.6,630.3 1667.6,621.5 1667.6,578.9 1658.4,569.6 		"/>
		<polygon class="st2" points="1772.6,612.6 1772.6,664.4 1567.4,664.4 1567.4,673.4 1567.5,673.4 1567.5,715.9 1576.7,725.2 
			1576.7,673.5 1781.9,673.5 1781.9,664.5 1781.8,664.5 1781.8,622 		"/>
		<polygon class="st2" points="2126.2,148.9 1921,148.9 1921,149 1921,157.9 1921,200.4 1930.2,209.8 1930.2,158 2135.4,158 
			2135.4,157.9 2135.4,149 2135.4,106.5 2126.2,97.2 		"/>
		<polygon class="st2" points="2240.4,140.2 2240.4,191.9 2035.2,191.9 2035.2,200.9 2035.3,200.9 2035.3,243.5 2044.5,252.8 
			2044.5,201.1 2249.7,201.1 2249.7,192.1 2249.6,192.1 2249.6,149.5 		"/>
		<polygon class="st2" points="1986.7,226.2 1781.6,226.2 1781.6,226.2 1781.6,235.2 1781.6,277.5 1790.8,286.9 1790.8,235.2 
			1996,235.2 1996,235.2 1996,226.2 1996,183.8 1986.7,174.5 		"/>
		<polygon class="st2" points="2100.9,217.5 2100.9,269.3 1895.8,269.3 1895.8,278.2 1896.1,278.2 1896.1,320.8 1905.3,330.1 
			1905.3,278.4 2110.5,278.4 2110.5,269.4 2110.2,269.4 2110.2,226.9 		"/>
		<polygon class="st2" points="2224.7,312.5 2224.5,312.5 2224.5,269.9 2215.2,260.6 2215.2,312.3 2010.1,312.3 2010.1,321.3 
			2010.3,321.3 2010.3,363.9 2019.5,373.2 2019.5,321.5 2224.7,321.5 		"/>
		<polygon class="st2" points="1945.8,424.5 1936.6,415.2 1936.6,466.9 1731.4,466.9 1731.4,475.9 1732.1,475.9 1732.1,518.4 
			1741.3,527.8 1741.3,476.1 1946.5,476.1 1946.5,467.1 1945.8,467.1 		"/>
		<polygon class="st2" points="2085.3,398.6 2085.3,389.8 2085.3,347.2 2076,337.9 2076,389.6 1870.9,389.6 1870.9,389.8 
			1870.9,398.6 1870.9,441.2 1880.1,450.5 1880.1,398.8 2085.3,398.8 		"/>
		<polygon class="st2" points="2199.5,441.7 2199.5,432.9 2199.5,390.3 2190.3,381 2190.3,381.1 2190.2,381 2190.2,432.7 
			1985.2,432.7 1985.2,432.7 1985.1,432.7 1985.1,441.7 1985.2,441.7 1985.2,484.3 1994.4,493.6 1994.4,441.9 2199.5,441.9 		"/>
		<polygon class="st2" points="2026.3,578.1 2026.3,629.9 1821.1,629.9 1821.1,630.4 1821.1,638.9 1821.1,681.8 1830.3,691.1 
			1830.3,691 1830.3,691 1830.3,690.7 1830.4,690.7 1830.4,639.4 2035.5,639.4 2035.5,639.3 2035.5,639.3 2035.5,639 2035.6,639 
			2035.6,630 2035.5,630 2035.5,587.5 		"/>
		<polygon class="st2" points="2175,561.7 2175,552.7 2175,510.6 2165.8,501.3 2165.8,552.7 1960.6,552.7 1960.6,553 1960.6,562 
			1960.6,604.1 1969.8,613.4 1969.8,562 2175,562 		"/>
		<polygon class="st2" points="1912.1,587.2 1706.9,587.2 1706.9,587.3 1706.9,596.3 1706.9,638.6 1716.1,647.9 1716.1,596.3 
			1921.3,596.3 1921.3,596.2 1921.3,587.2 1921.3,544.9 1912.1,535.6 		"/>
		<polygon class="st2" points="1847.5,251.8 1847.5,303.5 1642.4,303.5 1642.4,303.7 1642.4,312.5 1642.4,355 1651.6,364.4 
			1651.6,363.8 1652.1,364.3 1652.1,312.7 1856.8,312.7 1856.8,312.6 1857.2,312.6 1857.2,303.6 1856.8,303.6 1856.8,261.1 		"/>
		<polygon class="st2" points="1971,304.2 1961.7,294.8 1961.7,346.5 1756.6,346.5 1756.6,355.5 1756.7,355.5 1756.7,398.1 
			1765.9,407.4 1765.9,355.7 1971,355.7 1971,346.7 1971,346.7 		"/>
		<polygon class="st2" points="1717.3,338.4 1708.1,329.1 1708.1,380.8 1503,380.8 1503,389.8 1503.6,389.8 1503.6,432.3 
			1512.8,441.6 1512.8,389.9 1718,389.9 1718,380.9 1717.3,380.9 		"/>
		<polygon class="st2" points="1822.3,372.2 1822.3,423.9 1617.2,423.9 1617.2,432.9 1617.8,432.9 1617.8,475.4 1627.1,484.7 
			1627.1,433 1832.2,433 1832.2,424 1831.6,424 1831.6,381.5 		"/>
		<polygon class="st2" points="2238.8,794.3 2229.5,785 2229.5,836.7 2024.4,836.7 2024.4,845.7 2024.5,845.7 2024.5,888.3 
			2033.7,897.6 2033.7,845.9 2238.9,845.9 2238.9,836.9 2238.8,836.9 		"/>
		<polygon class="st2" points="1985.2,828.6 1975.9,819.2 1975.9,871 1770.8,871 1770.8,880 1771,880 1771,922.5 1780.2,931.9 
			1780.2,880.2 1985.4,880.2 1985.4,871.2 1985.2,871.2 		"/>
		<polygon class="st2" points="2124.6,802.7 2124.6,793.8 2124.6,751.3 2115.3,741.9 2115.3,793.7 1910.2,793.7 1910.2,793.8 
			1910.2,802.7 1910.2,845.2 1919.4,854.5 1919.4,802.8 2124.6,802.8 		"/>
		<polygon class="st2" points="1896.1,716.6 1896.1,716.6 1896.1,716.4 1896.1,707.6 1896.1,665.1 1886.8,655.7 1886.8,655.8 
			1886.8,655.8 1886.8,707.4 1681.7,707.4 1681.7,707.5 1681.7,707.5 1681.7,707.7 1681.7,716.5 1681.7,759.1 1690.9,768.4 
			1690.9,768.3 1690.9,768.3 1690.9,716.7 1896.1,716.7 		"/>
		<polygon class="st2" points="1861.6,776.2 1861.6,827.9 1656.5,827.9 1656.5,836.9 1656.8,836.9 1656.8,879.5 1666,888.8 
			1666,888.7 1666,888.7 1666,837.1 1871.2,837.1 1871.2,837 1871.2,837 1871.2,828 1870.9,828 1870.9,785.5 		"/>
		<polygon class="st2" points="2149.8,682.4 2149.8,682.4 2149.8,673.4 2149.8,673.4 2149.8,631.1 2140.5,621.7 2140.5,673.4 
			1935.4,673.4 1935.4,673.5 1935.4,673.5 1935.4,682.5 1935.4,724.8 1944.6,734.2 1944.6,734.1 1944.6,734.1 1944.6,682.5 
			2149.8,682.5 		"/>
		<polygon class="st2" points="2264,674.1 2254.8,664.8 2254.8,716.4 2049.6,716.4 2049.6,716.5 2049.6,716.5 2049.6,725.5 
			2049.6,767.9 2058.8,777.2 2058.8,777.1 2058.8,777.2 2058.8,725.5 2264,725.5 2264,725.4 2264,725.4 2264,716.4 2264,716.4 		"/>
		<polygon class="st2" points="2188.7,1035.1 2179.5,1025.7 2179.5,1077.3 1974.4,1077.3 1974.4,1077.5 1974.3,1077.5 
			1974.3,1086.5 1974.4,1086.5 1974.4,1128.7 1983.6,1138 1983.6,1086.5 2188.7,1086.5 2188.7,1086.3 2188.7,1086.3 2188.7,1077.3 
			2188.7,1077.3 		"/>
		<polygon class="st2" points="2213.9,914.7 2204.6,905.4 2204.6,957.1 1999.5,957.1 1999.5,957.3 1999.5,966.1 1999.5,1008.7 
			2008.7,1018 2008.7,1017.9 2008.8,1018 2008.8,966.3 2213.9,966.3 2213.9,966.2 2213.9,966.2 2213.9,957.2 2213.9,957.2 		"/>
		<polygon class="st2" points="1951,939.7 1950.9,939.6 1950.9,991.3 1745.8,991.3 1745.8,991.3 1745.8,991.3 1745.8,1000.3 
			1745.8,1000.3 1745.8,1042.9 1755.1,1052.2 1755.1,1000.5 1960.2,1000.5 1960.2,1000.3 1960.2,991.5 1960.2,948.9 1951,939.6 		
			"/>
		<polygon class="st2" points="2065.2,982.7 2065.2,1034.2 1860.1,1034.2 1860.1,1034.4 1860,1034.4 1860,1043.4 1860.1,1043.4 
			1860.1,1085.6 1869.4,1095 1869.4,1043.4 2074.4,1043.4 2074.4,1043.2 2074.5,1043.2 2074.5,1034.2 2074.4,1034.2 2074.4,992 		
			"/>
		<polygon class="st2" points="2099.6,923.2 2099.6,923 2099.6,914.2 2099.6,914.2 2099.6,871.6 2090.4,862.3 2090.4,914 
			1885.3,914 1885.3,914.2 1885.3,914.2 1885.3,923 1885.3,965.6 1885.3,965.6 1894.5,974.9 1894.5,974.9 1894.5,923.2 
			2099.6,923.2 		"/>
		<polygon class="st2" points="1845.9,957.3 1845.9,948.4 1845.9,905.9 1836.7,896.6 1836.7,948.3 1631.6,948.3 1631.6,948.4 
			1631.6,957.3 1631.6,999.8 1640.8,1009.2 1640.8,957.4 1845.9,957.4 		"/>
		<polygon class="st2" points="1478,948.3 1478.1,948.3 1478.1,939.3 1478,939.3 1478,897 1468.8,887.7 1468.8,939.3 1263.7,939.3 
			1263.7,939.4 1263.6,939.4 1263.6,948.4 1263.7,948.4 1263.7,990.7 1273,1000 1273,948.4 1478,948.4 		"/>
		<polygon class="st2" points="1412.3,922.8 1412.4,922.9 1412.4,871.3 1617.5,871.3 1617.5,871.2 1617.5,871.2 1617.5,862.2 
			1617.5,862.2 1617.5,819.6 1608.2,810.3 1608.2,810.4 1608.2,810.4 1608.2,862 1403.1,862 1403.1,862.1 1403.1,862.1 
			1403.1,862.3 1403.1,871.1 1403.1,913.7 1412.3,923 		"/>
		<polygon class="st2" points="1526.6,966.1 1526.6,914.4 1731.7,914.4 1731.7,905.4 1731.7,905.4 1731.7,862.8 1722.4,853.5 
			1722.4,905.2 1517.3,905.2 1517.3,914.2 1517.3,914.2 1517.3,956.8 		"/>
	</g>
</g>
<g>
	<defs>
		<rect id="SVGID_00000063602180486193163420000016977666160467396774_" x="989.1" width="930.9" height="1080"/>
	</defs>
	<clipPath id="SVGID_00000073697794638688218440000006179872017655079860_">
		<use xlink:href="#SVGID_00000063602180486193163420000016977666160467396774_"  style="overflow:visible;"/>
	</clipPath>
</g>
</svg>
